<?xml version="1.0" encoding="UTF-8"?>
<!DOCTYPE svg PUBLIC "-//W3C//DTD SVG 1.1//EN" "http://www.w3.org/Graphics/SVG/1.1/DTD/svg11.dtd">
<!-- Creator: CorelDRAW 2018 (64 Bit) -->
<svg xmlns="http://www.w3.org/2000/svg" xml:space="preserve" width="4.4992mm" height="4.4992mm" version="1.1" style="shape-rendering:geometricPrecision; text-rendering:geometricPrecision; image-rendering:optimizeQuality; fill-rule:evenodd; clip-rule:evenodd"
viewBox="0 0 6.92 6.92"
 xmlns:xlink="http://www.w3.org/1999/xlink">
 <defs>
  <style type="text/css">
   <![CDATA[
    .str0 {stroke:white;stroke-width:0.81;stroke-miterlimit:22.9256}
    .fil0 {fill:none}
    .fil1 {fill:white}
   ]]>
  </style>
 </defs>
 <g id="Capa_x0020_1">
  <metadata id="CorelCorpID_0Corel-Layer"/>
  <circle class="fil0 str0" cx="3.46" cy="3.46" r="3.05"/>
  <path class="fil1" d="M2.93 3.24l0.06 -0.1c0.04,-0.06 0.05,-0.06 0.07,-0.08 0.04,-0.04 0.12,-0.1 0.19,-0.12 0.12,-0.05 0.27,-0.05 0.4,-0 0.04,0.02 0.07,0.04 0.11,0.05 0.05,0.05 0.07,0.04 0.15,0.14 0.09,0.12 0.14,0.28 0.11,0.44 -0.01,0.05 -0.05,0.18 -0.08,0.2 -0.02,0.03 -0.03,0.05 -0.05,0.07 -0.01,0.01 -0.02,0.02 -0.03,0.03 -0.01,0.01 -0.02,0.02 -0.03,0.03 -0.1,0.08 -0.25,0.16 -0.43,0.13 -0.06,-0.01 -0.11,-0.02 -0.16,-0.04 -0.02,-0.01 -0.05,-0.02 -0.07,-0.04 -0.02,-0.01 -0.05,-0.04 -0.06,-0.04 -0.01,-0.01 -0.05,-0.05 -0.06,-0.06 -0.05,-0.06 -0.07,-0.08 -0.1,-0.15 -0.01,-0.03 -0.02,-0.06 -0.03,-0.09 -0.02,-0.09 -0.02,-0.15 -0.01,-0.24 0.01,-0.02 0.03,-0.11 0.03,-0.12zm-0.34 0.13c-0.01,0.06 -0.01,0.2 0.01,0.25 0,0.04 0.02,0.09 0.03,0.12l0.05 0.11c0,0.02 0.06,0.11 0.07,0.13 0.08,0.11 0.19,0.21 0.33,0.27 0.09,0.04 0.2,0.08 0.31,0.08 0.14,0.01 0.23,-0.01 0.35,-0.05 0.06,-0.03 0.11,-0.04 0.16,-0.08 0.04,-0.02 0.12,-0.08 0.14,-0.1 0.02,-0.01 0.04,-0.04 0.06,-0.06 0.02,-0.02 0.04,-0.04 0.05,-0.07 0.03,-0.03 0.09,-0.14 0.11,-0.19 0.03,-0.07 0.05,-0.16 0.06,-0.25 0.01,-0.1 -0,-0.19 -0.02,-0.28 -0.01,-0.05 -0.06,-0.19 -0.09,-0.22 -0.01,-0.05 -0.11,-0.16 -0.14,-0.19 -0.19,-0.19 -0.46,-0.29 -0.75,-0.24 -0.09,0.01 -0.18,0.04 -0.25,0.08 -0.15,0.07 -0.26,0.18 -0.35,0.32 -0.03,0.05 -0.09,0.17 -0.1,0.24 -0.01,0.02 -0.02,0.09 -0.02,0.12zm1.96 1.71c0.04,-0.02 0.11,-0.04 0.14,-0.07 0.07,-0.02 0.2,-0.15 0.25,-0.22 0.04,-0.05 0.08,-0.11 0.1,-0.18 0.04,-0.09 0.07,-0.18 0.08,-0.29 0.01,-0.07 0.03,-0.3 0.02,-0.35 0.02,-0.03 0,-1.02 -0,-1.13 -0,-0.11 -0.01,-0.21 -0.03,-0.31 -0.01,-0.06 -0.06,-0.21 -0.09,-0.25 -0.02,-0.05 -0.1,-0.16 -0.14,-0.2l-0.06 -0.06c-0.06,-0.05 -0.21,-0.16 -0.29,-0.17 -0.03,-0.02 -0.16,-0.05 -0.2,-0.05 -0.08,-0.01 -0.16,-0.02 -0.24,-0.02 -0.17,-0.01 -0.33,-0.01 -0.5,-0.01 -0.26,0 -0.73,-0.01 -0.96,0.02 -0.19,0.02 -0.39,0.09 -0.53,0.21 -0.04,0.03 -0.09,0.08 -0.12,0.12 -0.03,0.02 -0.09,0.12 -0.11,0.17 -0.01,0.03 -0.03,0.07 -0.04,0.1 -0.01,0.04 -0.02,0.08 -0.03,0.12 -0,0.03 -0.02,0.11 -0.02,0.16 -0,0.05 -0.01,0.13 -0.01,0.18 -0.01,0.05 -0.01,0.17 -0.01,0.23 -0,0.08 -0,0.16 -0,0.24l0 0.2 0 0.3 0 0.14c-0,0.08 0.01,0.35 0.03,0.42 0.01,0.08 0.08,0.28 0.12,0.33 0.01,0.04 0.07,0.11 0.09,0.13l0.07 0.07c0.01,0.01 0.02,0.01 0.03,0.02 0.02,0.01 0.1,0.08 0.12,0.08 0.01,0.01 0.02,0.01 0.03,0.02 0.18,0.09 0.35,0.12 0.56,0.12 0.23,0.01 0.48,0.02 0.72,0.01l0.3 -0c0,0 0,0 0,0l0.11 -0c0.04,0 0.18,0 0.21,-0.01 0.02,0 0.08,0 0.09,-0.01 0.02,0 0.13,-0.01 0.15,-0.02 0.04,0 0.13,-0.03 0.17,-0.04zm0.06 -0.38c-0.04,0.03 -0.07,0.06 -0.12,0.07 -0.01,0.01 -0.09,0.03 -0.11,0.04 -0.04,0.01 -0.08,0.02 -0.13,0.02l-0.16 0.01 -0.15 0 -0.09 0c-0.28,0 -0.56,0 -0.84,-0 -0.2,-0 -0.38,-0 -0.56,-0.07 -0.08,-0.03 -0.09,-0.06 -0.13,-0.08 -0,-0.01 -0.02,-0.02 -0.03,-0.03 -0.01,-0.01 -0.02,-0.02 -0.03,-0.03 -0.01,-0.01 -0.04,-0.06 -0.06,-0.06 -0,-0.02 -0.03,-0.06 -0.04,-0.08 -0.01,-0.03 -0.03,-0.06 -0.03,-0.1 -0.02,-0.08 -0.03,-0.15 -0.04,-0.23l-0.01 -0.37 -0 -0.23 0 -0.27 0 -0.21c0.01,-0.06 0,-0.15 0.01,-0.21 0,-0.07 0.01,-0.14 0.01,-0.21 0.01,-0.06 0.02,-0.11 0.03,-0.16 0.01,-0.02 0.02,-0.05 0.03,-0.07 0.01,-0.02 0.02,-0.04 0.03,-0.07 0.04,-0.04 0.07,-0.11 0.17,-0.17 0.08,-0.05 0.15,-0.07 0.23,-0.09l0.02 -0.01 0.1 -0.01c0.16,-0.01 0.31,-0.01 0.47,-0.01 0.26,-0 0.52,-0 0.78,0 0.12,0 0.25,0 0.37,0.03 0.08,0.01 0.15,0.04 0.22,0.08 0.02,0.01 0.04,0.03 0.06,0.04 0.01,0.01 0.06,0.05 0.09,0.09 0.06,0.07 0.09,0.14 0.12,0.23 0.01,0.03 0.02,0.13 0.03,0.15l0.01 0.26c0.01,0.27 0,0.56 0,0.83 -0,0.25 0.01,0.56 -0.1,0.77 -0.05,0.09 -0.13,0.15 -0.13,0.16zm-0.29 -2.34c-0.1,0.02 -0.19,0.11 -0.16,0.24 0.02,0.1 0.12,0.18 0.24,0.16 0.1,-0.02 0.18,-0.12 0.16,-0.24 -0.02,-0.1 -0.12,-0.18 -0.24,-0.16z"/>
 </g>
</svg>
